<svg xmlns="http://www.w3.org/2000/svg" xmlns:xlink="http://www.w3.org/1999/xlink" xmlns:sketch="http://www.bohemiancoding.com/sketch/ns" width="44px" height="38px" viewBox="2.2 -3.8 44.0 51.3" version="1.1">
    <title>bookmark_book</title>
    <description>Created with Sketch (http://www.bohemiancoding.com/sketch)</description>
    <defs/>
    <g id="Page-1" stroke="#eee" stroke-width="1" fill="white" fill-rule="none" sketch:type="MSPage">
        <path d="M21,34 C21,34 19.690907,32.182964 18.011533,32.182964 L3.997226,32.182964 C2.900408,32.182964 2.000028,31.285848 2.002787,30.1792 L2.068048,4.003763 C2.070792,2.903316 2.971876,2 4.080641,2 L17,2 L17,0 L4,0 C4,0 0,0 0,4 L0,29.948337 C0,32.162507 1.781827,33.957447 3.997825,33.957447 L17.843806,33.957447 C20.360577,33.957447 21.236685,38 21.236685,38 L22.4361057,38 L23,37.9494629 C23,37.9494629 23.639423,33.957447 26.156194,33.957447 L40.002175,33.957447 C42.218173,33.957447 44,32.162507 44,29.948337 L44,4 C44,0 40,0 40,0 L24.8942871,0 C24.8942871,0 21,0 21,4 L21,29 L22.046875,31 L23,29 L23,4 C23,2.01953125 24.8942871,2.01953125 24.8942871,2.01953125 L40,2.01953125 C40,2.01953125 42.1350098,2.01953125 42.1350098,4 L42.1350098,29.9483376 C42.1350098,32 40,32 40,32 L26.1561942,32 C23.9860113,32 22.6000166,34.9337308 22.2365,35.8043142 L21,34 Z M21,34" id="bookmark_book" fill="#000000" sketch:type="MSShapeGroup"/>
    </g>
</svg>